STARTFONT 2.1
COMMENT Transformed from SYMBIAN FSC to EPOC BDF format
COMMENT Original font file name: agnsym16.fsc
FONT agnsym16
SIZE 16 72 72
FONTBOUNDINGBOX 16 16 0 -2
STARTPROPERTIES 6
Uid 268435496
MaxNormalCharWidth 19
MaxConsecutiveFillChars 5
FONT_ASCENT 14
FONT_DESCENT 2
COPYRIGHT "Copyright (c) 1999 Symbian Ltd."
ENDPROPERTIES
CHARS 35
STARTCHAR space
ENCODING 32
SWIDTH 313 0
DWIDTH 5 0
BBX 0 0 0 0
BITMAP
ENDCHAR
STARTCHAR hyphenminus
ENCODING 45
SWIDTH 313 0
DWIDTH 5 0
BBX 4 1 0 6
BITMAP
F0
ENDCHAR
STARTCHAR fullstop
ENCODING 46
SWIDTH 188 0
DWIDTH 3 0
BBX 2 2 0 0
BITMAP
C0
C0
ENDCHAR
STARTCHAR slash
ENCODING 47
SWIDTH 500 0
DWIDTH 8 0
BBX 7 8 0 1
BITMAP
02
06
0C
18
30
60
C0
80
ENDCHAR
STARTCHAR digitzero
ENCODING 48
SWIDTH 500 0
DWIDTH 8 0
BBX 7 13 0 0
BITMAP
7C
C6
C6
C6
C6
C6
C6
C6
C6
C6
C6
C6
7C
ENDCHAR
STARTCHAR digitone
ENCODING 49
SWIDTH 500 0
DWIDTH 8 0
BBX 4 13 1 0
BITMAP
30
70
B0
30
30
30
30
30
30
30
30
30
30
ENDCHAR
STARTCHAR digittwo
ENCODING 50
SWIDTH 500 0
DWIDTH 8 0
BBX 7 13 0 0
BITMAP
7C
86
86
06
06
06
0C
18
30
60
C0
C0
FE
ENDCHAR
STARTCHAR digitthree
ENCODING 51
SWIDTH 500 0
DWIDTH 8 0
BBX 7 13 0 0
BITMAP
7C
CE
06
06
06
06
1C
06
06
06
06
CE
7C
ENDCHAR
STARTCHAR digitfour
ENCODING 52
SWIDTH 500 0
DWIDTH 8 0
BBX 7 13 0 0
BITMAP
0C
1C
3C
2C
6C
6C
CC
CC
FE
0C
0C
0C
0C
ENDCHAR
STARTCHAR digitfive
ENCODING 53
SWIDTH 500 0
DWIDTH 8 0
BBX 7 13 0 0
BITMAP
FE
C0
C0
C0
C0
FC
06
06
06
06
06
C6
7C
ENDCHAR
STARTCHAR digitsix
ENCODING 54
SWIDTH 500 0
DWIDTH 8 0
BBX 7 13 0 0
BITMAP
38
6C
C0
C0
C0
D8
FC
E6
C6
C6
C6
6C
38
ENDCHAR
STARTCHAR digitseven
ENCODING 55
SWIDTH 500 0
DWIDTH 8 0
BBX 7 13 0 0
BITMAP
FE
06
06
06
0C
0C
0C
18
18
18
30
30
30
ENDCHAR
STARTCHAR digiteight
ENCODING 56
SWIDTH 500 0
DWIDTH 8 0
BBX 7 13 0 0
BITMAP
38
6C
C6
C6
C6
6C
38
6C
C6
C6
C6
6C
38
ENDCHAR
STARTCHAR digitnine
ENCODING 57
SWIDTH 500 0
DWIDTH 8 0
BBX 7 13 0 0
BITMAP
38
6C
C6
C6
C6
C6
EE
7E
06
06
06
8C
78
ENDCHAR
STARTCHAR colon
ENCODING 58
SWIDTH 250 0
DWIDTH 4 0
BBX 2 7 1 2
BITMAP
C0
C0
00
00
00
C0
C0
ENDCHAR
STARTCHAR degreesign
ENCODING 176
SWIDTH 313 0
DWIDTH 5 0
BBX 5 5 0 9
BITMAP
70
D8
88
D8
70
ENDCHAR
STARTCHAR rightwhitearrow
ENCODING 8680
SWIDTH 938 0
DWIDTH 15 0
BBX 13 11 1 1
BITMAP
0100
0180
0140
FF20
8010
8008
8010
FF20
0140
0180
0100
ENDCHAR
STARTCHAR muchlessthan
ENCODING 8810
SWIDTH 750 0
DWIDTH 12 0
BBX 10 9 1 2
BITMAP
0CC0
1980
3300
6600
CC00
6600
3300
1980
0CC0
ENDCHAR
STARTCHAR muchgreaterthan
ENCODING 8811
SWIDTH 750 0
DWIDTH 12 0
BBX 10 9 1 2
BITMAP
CC00
6600
3300
1980
0CC0
1980
3300
6600
CC00
ENDCHAR
STARTCHAR circledone
ENCODING 9312
SWIDTH 1188 0
DWIDTH 19 0
BBX 15 14 2 -1
BITMAP
07C0
1830
2108
4304
4504
8102
8102
8102
8102
4104
4104
2108
1830
07C0
ENDCHAR
STARTCHAR circledtwo
ENCODING 9313
SWIDTH 1188 0
DWIDTH 19 0
BBX 15 14 2 -1
BITMAP
07C0
1830
2388
4444
4044
8042
8042
8082
8102
4204
4404
27C8
1830
07C0
ENDCHAR
STARTCHAR circledthree
ENCODING 9314
SWIDTH 1188 0
DWIDTH 19 0
BBX 15 14 2 -1
BITMAP
07C0
1830
2388
4444
4044
8042
8382
8042
8042
4044
4444
2388
1830
07C0
ENDCHAR
STARTCHAR circledfour
ENCODING 9315
SWIDTH 1188 0
DWIDTH 19 0
BBX 15 14 2 -1
BITMAP
07C0
1830
2088
4184
4284
8482
8882
8882
8FC2
4084
4084
2088
1830
07C0
ENDCHAR
STARTCHAR circledfive
ENCODING 9316
SWIDTH 1188 0
DWIDTH 19 0
BBX 15 14 2 -1
BITMAP
07C0
1830
27C8
4404
4404
8402
8782
8042
8042
4044
4444
2388
1830
07C0
ENDCHAR
STARTCHAR circledsix
ENCODING 9317
SWIDTH 1188 0
DWIDTH 19 0
BBX 15 14 2 -1
BITMAP
07C0
1830
2388
4444
4404
8402
8782
8442
8442
4444
4444
2388
1830
07C0
ENDCHAR
STARTCHAR circledseven
ENCODING 9318
SWIDTH 1188 0
DWIDTH 19 0
BBX 15 14 2 -1
BITMAP
07C0
1830
27C8
4044
4044
8082
8082
8102
8102
4204
4204
2208
1830
07C0
ENDCHAR
STARTCHAR circledeight
ENCODING 9319
SWIDTH 1188 0
DWIDTH 19 0
BBX 15 14 2 -1
BITMAP
07C0
1830
2388
4444
4444
8442
8382
8442
8442
4444
4444
2388
1830
07C0
ENDCHAR
STARTCHAR circlednine
ENCODING 9320
SWIDTH 1188 0
DWIDTH 19 0
BBX 15 14 2 -1
BITMAP
07C0
1830
2388
4444
4444
8442
8442
83C2
8042
4044
4444
2388
1830
07C0
ENDCHAR
STARTCHAR circledcapitalt
ENCODING 9417
SWIDTH 1188 0
DWIDTH 19 0
BBX 15 14 2 -1
BITMAP
07C0
1830
2008
4FE4
4104
8102
8102
8102
8102
4104
4104
2008
1830
07C0
ENDCHAR
STARTCHAR blacksmallsquare
ENCODING 9642
SWIDTH 563 0
DWIDTH 9 0
BBX 5 5 2 4
BITMAP
F8
F8
F8
F8
F8
ENDCHAR
STARTCHAR ballotboxwithx
ENCODING 9746
SWIDTH 1000 0
DWIDTH 16 0
BBX 14 13 1 0
BITMAP
FFFC
8004
8464
8CE4
8FC4
8784
8384
87C4
8EF4
BC64
9804
8004
FFFC
ENDCHAR
STARTCHAR ballotx
ENCODING 10007
SWIDTH 750 0
DWIDTH 12 0
BBX 10 9 1 2
BITMAP
1180
3380
3F00
1E00
0E00
1F00
3BC0
F180
6000
ENDCHAR
STARTCHAR flag
ENCODING 63229
SWIDTH 1063 0
DWIDTH 17 0
BBX 13 14 2 -1
BITMAP
E000
4E00
5300
6100
41F8
4108
4108
4D08
7308
4318
41F0
4000
4000
4000
ENDCHAR
STARTCHAR anniversarycandle
ENCODING 63230
SWIDTH 750 0
DWIDTH 12 0
BBX 8 14 2 -1
BITMAP
18
1C
26
62
44
78
18
FF
D1
A9
81
81
81
FF
ENDCHAR
STARTCHAR alarmbell
ENCODING 63231
SWIDTH 1125 0
DWIDTH 18 0
BBX 16 13 1 0
BITMAP
0180
0660
0810
0810
1008
1008
1008
2004
2FF4
7C0E
9C03
8001
7FFE
ENDCHAR
ENDFONT
